<svg xmlns="http://www.w3.org/2000/svg" data-name="Layer 1" viewBox="0 0 100 125" x="0px" y="0px"><title>02</title><g data-name="Group"><path data-name="Path" d="M76.2,13.1A18.8,18.8,0,0,0,57.4,31.9a3,3,0,0,0,6,0A12.8,12.8,0,1,1,76.2,44.7H8a3,3,0,0,0,0,6H76.2a18.8,18.8,0,1,0,0-37.6Z"/><path data-name="Path" d="M37,33.6H8a3,3,0,0,0,0,6H37A12.4,12.4,0,1,0,24.6,27.2a3,3,0,1,0,6,0A6.4,6.4,0,1,1,37,33.6Z"/><path data-name="Path" d="M46.9,62.3a9.3,9.3,0,1,1-9.3,9.3,3,3,0,0,0-6,0A15.3,15.3,0,1,0,46.9,56.3H8a3,3,0,0,0,0,6Z"/></g></svg>